<svg xmlns="http://www.w3.org/2000/svg" viewBox="0 0 96 96" width="96" height="96" role="img" aria-label="TQS terminal badge">
  <!-- Concept B — terminal tile. Fixed dark bg, works on any surface.
       Letterforms are hand-drawn rectilinear strokes (no font dependency). -->
  <rect x="0.5" y="0.5" width="95" height="95" rx="8" fill="#0a0d12" stroke="#2e3948"/>
  <g stroke="#1f2733" stroke-width="1">
    <line x1="8" y1="28" x2="88" y2="28"/>
    <line x1="8" y1="44" x2="88" y2="44"/>
    <line x1="8" y1="60" x2="88" y2="60"/>
  </g>
  <polyline points="10,58 22,50 30,55 42,40 52,45 64,30 72,35 85,22" fill="none" stroke="#ff5c72" stroke-width="3" stroke-linejoin="miter"/>
  <circle cx="85" cy="22" r="3.5" fill="#ff5c72"/>
  <g transform="translate(10,68) scale(0.75)" fill="none" stroke="#e9edf2" stroke-width="3">
    <path d="M0 1.5 H16 M8 1.5 V24"/>
    <g transform="translate(22,0)">
      <rect x="1.5" y="1.5" width="13" height="21"/>
      <path d="M9.5 16.5 L16 23"/>
    </g>
    <g transform="translate(44,0)">
      <path d="M16 1.5 H1.5 V12 H14.5 V22.5 H0"/>
    </g>
  </g>
</svg>
